<?xml version="1.0" encoding="UTF-8"?>
<svg xmlns="http://www.w3.org/2000/svg" viewBox="0 0 454.54 61.88">
  <defs>
    <style>
      .cls-1 {
        fill: #ef7a00;
      }

      .cls-2 {
        fill: #706c57;
      }
    </style>
  </defs>

        <path class="cls-2" d="m155.37,29.08v11.3h-2.67v-11.3h-3.58v-2.38h9.82v2.38h-3.58Z"/>
        <path class="cls-2" d="m166.77,39.27c-.62.65-1.63,1.23-3.12,1.23s-2.48-.58-3.09-1.23c-.9-.94-1.13-2.08-1.13-3.9s.23-2.94,1.13-3.88c.62-.65,1.62-1.23,3.09-1.23s2.5.58,3.12,1.23c.9.94,1.13,2.08,1.13,3.88s-.23,2.96-1.13,3.9Zm-1.94-6.33c-.29-.29-.67-.44-1.17-.44s-.87.15-1.15.44c-.52.52-.58,1.38-.58,2.42s.06,1.92.58,2.44c.29.29.65.44,1.15.44s.88-.15,1.17-.44c.52-.52.58-1.4.58-2.44s-.06-1.9-.58-2.42Z"/>
        <path class="cls-2" d="m173.62,40.38c-2.04,0-2.9-1.44-2.9-2.86v-4.96h-1.06v-1.9h1.06v-2.96h2.5v2.96h1.77v1.9h-1.77v4.81c0,.58.27.9.87.9h.9v2.11h-1.36Z"/>
        <path class="cls-2" d="m182.52,40.38v-.86c-.67.67-1.31.96-2.46.96s-1.96-.29-2.56-.88c-.54-.56-.83-1.37-.83-2.25,0-1.6,1.1-2.9,3.42-2.9h2.37v-.5c0-1.1-.54-1.58-1.87-1.58-.96,0-1.4.23-1.92.83l-1.6-1.56c.98-1.08,1.94-1.38,3.62-1.38,2.81,0,4.27,1.19,4.27,3.54v6.59h-2.44Zm-.06-4.23h-1.98c-.9,0-1.4.42-1.4,1.13s.46,1.15,1.44,1.15c.69,0,1.13-.06,1.58-.48.27-.25.37-.65.37-1.27v-.54Z"/>
        <path class="cls-2" d="m190.67,40.38c-2.06,0-2.92-1.44-2.92-2.86v-10.82h2.5v10.67c0,.6.25.9.88.9h.96v2.11h-1.42Z"/>
        <path class="cls-2" d="m204.44,35.23h-2.63v5.15h-2.67v-13.69h5.31c2.83,0,4.52,1.94,4.52,4.27s-1.69,4.27-4.52,4.27Zm-.13-6.15h-2.5v3.75h2.5c1.21,0,1.98-.75,1.98-1.86s-.77-1.88-1.98-1.88Z"/>
        <path class="cls-2" d="m216.14,40.38v-.86c-.67.67-1.31.96-2.46.96s-1.96-.29-2.56-.88c-.54-.56-.83-1.37-.83-2.25,0-1.6,1.1-2.9,3.42-2.9h2.37v-.5c0-1.1-.54-1.58-1.87-1.58-.96,0-1.4.23-1.92.83l-1.59-1.56c.98-1.08,1.94-1.38,3.61-1.38,2.81,0,4.27,1.19,4.27,3.54v6.59h-2.44Zm-.06-4.23h-1.98c-.9,0-1.4.42-1.4,1.13s.46,1.15,1.44,1.15c.69,0,1.13-.06,1.58-.48.27-.25.37-.65.37-1.27v-.54Z"/>
        <path class="cls-2" d="m225.45,40.5c-2,0-4.48-1.08-4.48-5.13s2.48-5.11,4.48-5.11c1.38,0,2.42.42,3.31,1.35l-1.69,1.69c-.52-.56-.96-.79-1.61-.79-.6,0-1.06.21-1.42.65-.38.48-.56,1.15-.56,2.21s.17,1.75.56,2.23c.37.44.83.65,1.42.65.65,0,1.1-.23,1.61-.79l1.69,1.67c-.88.92-1.92,1.37-3.31,1.37Z"/>
        <path class="cls-2" d="m236.91,40.38l-2.46-4.17-1.06,1.19v2.98h-2.5v-13.69h2.5v7.77l3.33-4.09h3.02l-3.58,4.04,3.85,5.98h-3.1Z"/>
        <path class="cls-2" d="m246.96,40.38v-.86c-.67.67-1.31.96-2.46.96s-1.96-.29-2.55-.88c-.54-.56-.83-1.37-.83-2.25,0-1.6,1.1-2.9,3.42-2.9h2.37v-.5c0-1.1-.54-1.58-1.87-1.58-.96,0-1.4.23-1.92.83l-1.6-1.56c.98-1.08,1.94-1.38,3.61-1.38,2.81,0,4.27,1.19,4.27,3.54v6.59h-2.44Zm-.06-4.23h-1.98c-.9,0-1.4.42-1.4,1.13s.46,1.15,1.44,1.15c.69,0,1.13-.06,1.58-.48.27-.25.37-.65.37-1.27v-.54Z"/>
        <path class="cls-2" d="m255.75,44.17c-1.54,0-2.6-.31-3.63-1.31l1.56-1.58c.56.54,1.12.77,1.96.77,1.5,0,2.02-1.06,2.02-2.08v-1.02c-.65.73-1.4,1-2.38,1s-1.83-.33-2.38-.88c-.94-.94-1.02-2.23-1.02-3.98s.08-3.02,1.02-3.96c.56-.56,1.42-.88,2.4-.88,1.06,0,1.75.29,2.44,1.06v-.94h2.42v9.65c0,2.4-1.71,4.15-4.4,4.15Zm.25-11.67c-1.48,0-1.63,1.27-1.63,2.6s.15,2.61,1.63,2.61,1.65-1.29,1.65-2.61-.17-2.6-1.65-2.6Z"/>
        <path class="cls-2" d="m263.11,28.66v-2.04h2.56v2.04h-2.56Zm.04,11.73v-10.02h2.5v10.02h-2.5Z"/>
        <path class="cls-2" d="m274.45,40.38v-6.06c0-1.36-.87-1.83-1.65-1.83s-1.67.46-1.67,1.83v6.06h-2.5v-10.02h2.44v.92c.65-.69,1.58-1.04,2.5-1.04,1,0,1.81.33,2.37.88.81.81,1.02,1.75,1.02,2.85v6.4h-2.5Z"/>
        <path class="cls-2" d="m283.3,44.17c-1.54,0-2.59-.31-3.63-1.31l1.56-1.58c.56.54,1.12.77,1.96.77,1.5,0,2.02-1.06,2.02-2.08v-1.02c-.65.73-1.4,1-2.38,1s-1.83-.33-2.38-.88c-.94-.94-1.02-2.23-1.02-3.98s.08-3.02,1.02-3.96c.56-.56,1.42-.88,2.4-.88,1.06,0,1.75.29,2.44,1.06v-.94h2.42v9.65c0,2.4-1.71,4.15-4.4,4.15Zm.25-11.67c-1.48,0-1.63,1.27-1.63,2.6s.15,2.61,1.63,2.61,1.65-1.29,1.65-2.61-.17-2.6-1.65-2.6Z"/>
        <path class="cls-2" d="m299.31,40.5c-2.08,0-3.65-.44-5-1.81l1.73-1.73c.87.86,2.04,1.15,3.31,1.15,1.58,0,2.42-.6,2.42-1.69,0-.48-.13-.88-.42-1.15-.27-.25-.58-.38-1.21-.48l-1.66-.23c-1.17-.17-2.04-.54-2.65-1.13-.65-.65-.98-1.54-.98-2.69,0-2.44,1.81-4.15,4.77-4.15,1.88,0,3.25.46,4.42,1.6l-1.69,1.67c-.87-.83-1.9-.94-2.81-.94-1.42,0-2.11.79-2.11,1.73,0,.35.12.71.4.98.27.25.71.46,1.27.54l1.62.23c1.25.17,2.04.52,2.61,1.06.73.69,1.06,1.69,1.06,2.9,0,2.65-2.21,4.15-5.08,4.15Z"/>
        <path class="cls-2" d="m313.83,39.27c-.62.65-1.63,1.23-3.12,1.23s-2.48-.58-3.1-1.23c-.9-.94-1.13-2.08-1.13-3.9s.23-2.94,1.13-3.88c.62-.65,1.62-1.23,3.1-1.23s2.5.58,3.12,1.23c.9.94,1.13,2.08,1.13,3.88s-.23,2.96-1.13,3.9Zm-1.94-6.33c-.29-.29-.67-.44-1.17-.44s-.87.15-1.15.44c-.52.52-.58,1.38-.58,2.42s.06,1.92.58,2.44c.29.29.65.44,1.15.44s.88-.15,1.17-.44c.52-.52.58-1.4.58-2.44s-.06-1.9-.58-2.42Z"/>
        <path class="cls-2" d="m320.37,40.38c-2.06,0-2.92-1.44-2.92-2.86v-10.82h2.5v10.67c0,.6.25.9.88.9h.96v2.11h-1.42Z"/>
        <path class="cls-2" d="m329.75,40.38v-.92c-.65.69-1.58,1.04-2.5,1.04-1,0-1.81-.33-2.37-.88-.81-.81-1.02-1.75-1.02-2.85v-6.4h2.5v6.06c0,1.36.86,1.83,1.65,1.83s1.67-.46,1.67-1.83v-6.06h2.5v10.02h-2.44Z"/>
        <path class="cls-2" d="m338.32,40.38c-2.04,0-2.9-1.44-2.9-2.86v-4.96h-1.06v-1.9h1.06v-2.96h2.5v2.96h1.77v1.9h-1.77v4.81c0,.58.27.9.86.9h.91v2.11h-1.37Z"/>
        <path class="cls-2" d="m342.11,28.66v-2.04h2.55v2.04h-2.55Zm.04,11.73v-10.02h2.5v10.02h-2.5Z"/>
        <path class="cls-2" d="m354.55,39.27c-.62.65-1.63,1.23-3.12,1.23s-2.48-.58-3.1-1.23c-.9-.94-1.13-2.08-1.13-3.9s.23-2.94,1.13-3.88c.62-.65,1.62-1.23,3.1-1.23s2.5.58,3.12,1.23c.9.94,1.13,2.08,1.13,3.88s-.23,2.96-1.13,3.9Zm-1.94-6.33c-.29-.29-.67-.44-1.17-.44s-.86.15-1.15.44c-.52.52-.58,1.38-.58,2.42s.06,1.92.58,2.44c.29.29.65.44,1.15.44s.88-.15,1.17-.44c.52-.52.58-1.4.58-2.44s-.06-1.9-.58-2.42Z"/>
        <path class="cls-2" d="m364.08,40.38v-6.06c0-1.36-.87-1.83-1.65-1.83s-1.67.46-1.67,1.83v6.06h-2.5v-10.02h2.44v.92c.65-.69,1.58-1.04,2.5-1.04,1,0,1.81.33,2.36.88.81.81,1.02,1.75,1.02,2.85v6.4h-2.5Z"/>
        <path class="cls-2" d="m378.89,40.5c-1.46,0-2.69-.5-3.69-1.5-.6-.6-.96-1.29-1.12-2.06-.15-.77-.23-1.9-.23-3.4s.08-2.63.23-3.4c.16-.79.52-1.46,1.12-2.06,1-1,2.23-1.5,3.69-1.5,2.63,0,4.57,1.54,5.04,4.33h-2.71c-.29-1.17-1.02-1.94-2.3-1.94-.73,0-1.31.23-1.71.71-.56.6-.67,1.21-.67,3.86s.12,3.27.67,3.87c.4.48.98.71,1.71.71,1.29,0,2.02-.77,2.3-1.94h2.71c-.46,2.79-2.42,4.33-5.04,4.33Z"/>
        <path class="cls-2" d="m393.15,39.27c-.62.65-1.63,1.23-3.12,1.23s-2.48-.58-3.1-1.23c-.9-.94-1.13-2.08-1.13-3.9s.23-2.94,1.13-3.88c.62-.65,1.62-1.23,3.1-1.23s2.5.58,3.12,1.23c.9.94,1.13,2.08,1.13,3.88s-.23,2.96-1.13,3.9Zm-1.94-6.33c-.29-.29-.67-.44-1.17-.44s-.87.15-1.15.44c-.52.52-.58,1.38-.58,2.42s.06,1.92.58,2.44c.29.29.65.44,1.15.44s.88-.15,1.17-.44c.52-.52.58-1.4.58-2.44s-.06-1.9-.58-2.42Z"/>
        <path class="cls-2" d="m408.51,40.38v-6.06c0-1.36-.87-1.83-1.65-1.83s-1.67.46-1.67,1.77v6.11h-2.5v-6.06c0-1.36-.87-1.83-1.65-1.83s-1.67.46-1.67,1.83v6.06h-2.5v-10.02h2.44v.92c.65-.67,1.58-1.04,2.5-1.04,1.11,0,2.02.4,2.65,1.27.85-.88,1.75-1.27,3-1.27,1,0,1.9.33,2.46.88.81.81,1.1,1.75,1.1,2.85v6.4h-2.5Z"/>
        <path class="cls-2" d="m421.26,39.59c-.55.56-1.46.9-2.44.9s-1.77-.27-2.42-1v4.56h-2.5v-13.69h2.42v.94c.69-.77,1.44-1.06,2.5-1.06.98,0,1.88.35,2.44.9,1,1,1.02,2.71,1.02,4.21s-.02,3.23-1.02,4.23Zm-3.17-7.09c-1.5,0-1.69,1.23-1.69,2.86s.19,2.88,1.69,2.88,1.69-1.25,1.69-2.88-.19-2.86-1.69-2.86Z"/>
        <path class="cls-2" d="m429.99,40.38v-.86c-.67.67-1.31.96-2.46.96s-1.96-.29-2.56-.88c-.54-.56-.83-1.37-.83-2.25,0-1.6,1.1-2.9,3.42-2.9h2.37v-.5c0-1.1-.54-1.58-1.87-1.58-.96,0-1.4.23-1.92.83l-1.6-1.56c.98-1.08,1.94-1.38,3.62-1.38,2.81,0,4.27,1.19,4.27,3.54v6.59h-2.44Zm-.06-4.23h-1.98c-.9,0-1.4.42-1.4,1.13s.46,1.15,1.44,1.15c.69,0,1.13-.06,1.58-.48.27-.25.37-.65.37-1.27v-.54Z"/>
        <path class="cls-2" d="m441.14,40.38v-6.06c0-1.36-.87-1.83-1.65-1.83s-1.67.46-1.67,1.83v6.06h-2.5v-10.02h2.44v.92c.65-.69,1.57-1.04,2.5-1.04,1,0,1.81.33,2.37.88.81.81,1.02,1.75,1.02,2.85v6.4h-2.5Z"/>
        <path class="cls-2" d="m450.25,42c-.21.56-.44.98-.75,1.29-.58.58-1.33.77-2.15.77h-.98v-2.25h.58c.71,0,1-.17,1.25-.9l.42-1.23-3.42-9.3h2.63l2.08,6.19,2-6.19h2.63l-4.29,11.63Z"/>
        <path class="cls-1" d="m99.43,6.59h-13.65v33.88h6.17V12.1h7.16c2.8,0,4.57,1.78,4.57,4.35s-1.78,4.31-4.57,4.31h-3.83v5.55h4.15c6.52,0,10.43-4.48,10.43-9.86s-3.91-9.86-10.43-9.86Z"/>
        <path class="cls-1" d="m67.16,12.1h11.94v-5.51h-12.25c-6.53,0-10.44,4.49-10.44,9.86v14.16c0,5.37,3.91,9.86,10.44,9.86h12.25v-5.51h-11.94c-2.8,0-4.57-1.77-4.57-4.35v-4.31h16.52v-5.55h-16.52v-4.31c0-2.57,1.78-4.35,4.57-4.35Z"/>
        <path class="cls-1" d="m125.14,12.1h11.94v-5.51h-12.26c-6.52,0-10.43,4.49-10.43,9.86v14.16c0,5.37,3.91,9.86,10.43,9.86h12.26v-5.51h-11.94c-2.8,0-4.57-1.77-4.57-4.35v-4.31h16.52v-5.55h-16.52v-4.31c0-2.57,1.77-4.35,4.57-4.35Z"/>
          <path class="cls-1" d="m15.98,3.12L3.12,15.98c-2.01,2.01-3.12,4.7-3.12,7.55s1.11,5.54,3.12,7.55l9.04,9.03,4.55-4.56-9.04-9.03c-.79-.79-1.23-1.86-1.23-3s.44-2.2,1.23-3l12.86-12.86c1.65-1.65,4.34-1.65,5.99,0l13.17,13.17c1.65,1.65,1.65,4.34,0,6l-12.85,12.85c-3.49,3.49-6.22,10.02-6.22,14.87v7.32h6.44v-7.32c0-3.19,2.02-8.01,4.33-10.31l12.85-12.85c4.16-4.16,4.16-10.94,0-15.11L31.08,3.12c-4.16-4.16-10.94-4.17-15.11,0Z"/>
          <path class="cls-1" d="m32.79,23.53c-6.72,1.4-7.86,2.54-9.26,9.27-1.4-6.72-2.54-7.86-9.26-9.27,6.72-1.4,7.86-2.53,9.26-9.26,1.4,6.72,2.54,7.86,9.26,9.26Z"/>

</svg>