<?xml version="1.0" encoding="UTF-8"?>
<svg xmlns="http://www.w3.org/2000/svg" viewBox="0 0 283.46 127.95">
  <defs>
    <style>
      .cls-1 {
        fill: #fff;
      }
    </style>
  </defs>
  <g>
    <g>
      <path class="cls-1" d="m205.59,13.62h-28.22v70.05h12.76V25.01h14.81c5.79,0,9.46,3.67,9.46,9s-3.67,8.9-9.46,8.9h-7.92v11.47h8.57c13.5,0,21.58-9.27,21.58-20.38s-8.08-20.39-21.58-20.39Z"/>
      <path class="cls-1" d="m138.86,25.01h24.7v-11.38h-25.34c-13.5,0-21.58,9.27-21.58,20.39v29.28c0,11.11,8.08,20.38,21.58,20.38h25.34v-11.39h-24.7c-5.78,0-9.45-3.67-9.45-8.99v-8.91h34.15v-11.47h-34.15v-8.9c0-5.33,3.67-9,9.45-9Z"/>
      <path class="cls-1" d="m258.77,25.01h24.7v-11.38h-25.34c-13.49,0-21.57,9.27-21.57,20.39v29.28c0,11.11,8.08,20.38,21.57,20.38h25.34v-11.39h-24.7c-5.79,0-9.45-3.67-9.45-8.99v-8.91h34.15v-11.47h-34.15v-8.9c0-5.33,3.67-9,9.45-9Z"/>
      <g>
        <path class="cls-1" d="m33.04,6.45L6.45,33.03c-4.16,4.16-6.45,9.71-6.45,15.62s2.29,11.46,6.45,15.62l18.68,18.68,9.42-9.42-18.68-18.68c-1.65-1.64-2.55-3.84-2.55-6.19s.9-4.56,2.55-6.2l26.58-26.58c1.64-1.64,3.84-2.55,6.2-2.55,2.35,0,4.56.9,6.2,2.55l27.22,27.23c3.42,3.42,3.42,8.98,0,12.4l-26.58,26.58c-7.21,7.21-12.86,20.71-12.86,30.74v15.12h13.32v-15.12c0-6.59,4.18-16.55,8.96-21.32l26.58-26.58c8.61-8.61,8.61-22.63,0-31.24l-27.22-27.23c-4.16-4.16-9.71-6.45-15.62-6.45s-11.46,2.29-15.62,6.45Z"/>
        <path class="cls-1" d="m67.8,48.65c-13.9,2.9-16.25,5.25-19.15,19.15-2.89-13.9-5.25-16.25-19.15-19.15,13.9-2.89,16.25-5.24,19.15-19.14,2.9,13.9,5.24,16.25,19.15,19.14Z"/>
      </g>
    </g>
  </g>
</svg>