<?xml version="1.0" encoding="UTF-8"?><svg xmlns="http://www.w3.org/2000/svg" viewBox="0 0 535.53 505.21"><defs><style>.cls-1{fill:#f77e2d;}.cls-2{fill:#f6f6f6;}.cls-3{fill:#ddd;}.cls-4{fill:#333;}.cls-5{fill:#efefef;}.cls-6{fill:#3449a4;}.cls-7{fill:#dedede;}.cls-8{fill:#b6b6b6;}.cls-9{fill:#ececec;}.cls-10{fill:#95cc30;}.cls-11{fill:#d2d0d0;}</style></defs><g id="_レイヤー_2"><path class="cls-9" d="M267.76,269.46c26.97-36.77,70.48-60.64,119.57-60.64,6.27,0,12.44.39,18.51,1.15,8.64-18.81,13.46-39.73,13.46-61.77C419.3,66.35,352.95,0,271.1,0S122.9,66.35,122.9,148.2c0,21.79,4.71,42.49,13.15,61.12,4-.32,8.05-.5,12.14-.5,49.09,0,92.6,23.88,119.57,60.64Z"/><path class="cls-5" d="M252.59,295.24c-52.03-6.48-95.68-39.93-116.53-85.92C59.89,215.49,0,279.26,0,357.02c0,81.85,66.35,148.2,148.2,148.2,49.09,0,92.6-23.88,119.57-60.64-17.99-24.53-28.63-54.8-28.63-87.55,0-22.05,4.82-42.97,13.46-61.77Z"/><path class="cls-11" d="M252.59,295.24c4.19-9.13,9.29-17.76,15.17-25.78-26.97-36.77-70.48-60.64-119.57-60.64-4.09,0-8.13.17-12.14.5,20.85,45.99,64.5,79.44,116.53,85.92Z"/><path class="cls-2" d="M405.84,209.97c-21.82,47.51-68.03,81.5-122.6,85.92,8.45,18.64,13.15,39.33,13.15,61.12,0,32.76-10.63,63.02-28.63,87.55,26.97,36.77,70.48,60.64,119.57,60.64,81.85,0,148.2-66.35,148.2-148.2,0-75.58-56.58-137.94-129.69-147.05Z"/><path class="cls-3" d="M267.76,269.46c6.02,8.21,11.23,17.06,15.47,26.43,54.57-4.42,100.78-38.41,122.6-85.92-6.06-.76-12.24-1.15-18.51-1.15-49.09,0-92.6,23.88-119.57,60.64Z"/><path class="cls-7" d="M283.24,295.89c-4,.32-8.05.5-12.14.5-6.27,0-12.44-.39-18.51-1.15-8.64,18.81-13.46,39.73-13.46,61.77,0,32.76,10.63,63.02,28.63,87.55,17.99-24.53,28.63-54.8,28.63-87.55,0-21.79-4.71-42.49-13.15-61.12Z"/><path class="cls-8" d="M252.59,295.24c6.06.76,12.24,1.15,18.51,1.15,4.09,0,8.13-.17,12.14-.5-4.25-9.37-9.45-18.22-15.47-26.43-5.88,8.02-10.98,16.65-15.17,25.78Z"/></g><g id="_レイヤー_1"><path class="cls-4" d="M203.74,101.76h-3.67l-6.69-22.06h2.8l5.71,19.71,5.54-19.71h3.72l5.54,19.71,5.71-19.71h2.8l-6.69,22.06h-3.67l-5.57-19.71-5.54,19.71Z"/><path class="cls-4" d="M229.22,94.43c.14,3.02,1.85,5.49,5.91,5.49,2.72,0,4.23-.9,5.18-1.46v2.69c-.76.34-2.52,1.06-5.18,1.06-6.66,0-8.37-4.98-8.37-8.6,0-5.35,3.3-8.79,7.56-8.79,2.02,0,5.07.84,6.52,4.45.76,1.85.78,4.03.78,5.15h-12.4ZM239.08,92.19c-.31-4-3.05-5.04-4.87-5.04-2.72,0-4.76,2.04-4.96,5.04h9.83Z"/><path class="cls-4" d="M254,87.48c1.4-1.76,3.16-2.66,5.4-2.66,4.2,0,7.36,3.42,7.36,8.71s-3.16,8.68-7.36,8.68c-2.24,0-4-.9-5.4-2.66v9.66h-2.49v-23.94h2.49v2.21ZM259.04,99.91c4,0,5.24-3.56,5.24-6.38s-1.23-6.38-5.24-6.38c-2.07,0-5.15,1.26-5.15,6.38s3.08,6.38,5.15,6.38Z"/><path class="cls-4" d="M269.49,101.76v-16.49h2.49v2.18c1.76-2.69,4.26-2.63,5.32-2.63v2.32c-3.58-.06-5.32,1.68-5.32,5.32v9.3h-2.49Z"/><path class="cls-4" d="M286.17,84.82c4.31,0,8.15,3.22,8.15,8.71s-3.84,8.68-8.12,8.68-8.15-3.22-8.15-8.68,3.86-8.71,8.12-8.71ZM286.17,99.91c2.41,0,5.63-1.57,5.63-6.38s-3.22-6.38-5.6-6.38-5.63,1.54-5.63,6.38,3.25,6.38,5.6,6.38Z"/><path class="cls-4" d="M306.39,85.27h2.69l-5.32,16.49h-3.33l-5.32-16.49h2.69l4.31,13.97,4.28-13.97Z"/><path class="cls-4" d="M314.45,82.78h-2.94v-3.08h2.94v3.08ZM314.26,101.76h-2.55v-16.49h2.55v16.49Z"/><path class="cls-4" d="M330.64,99.58c-1.37,1.74-3.16,2.63-5.38,2.63-4.23,0-7.39-3.42-7.39-8.68s3.16-8.71,7.39-8.71c2.21,0,4,.9,5.38,2.66v-8.82h2.52v23.1h-2.52v-2.18ZM325.63,87.15c-4.03,0-5.24,3.56-5.24,6.38s1.2,6.38,5.24,6.38c2.04,0,5.15-1.29,5.15-6.38s-3.11-6.38-5.15-6.38Z"/><path class="cls-4" d="M338.73,94.43c.14,3.02,1.85,5.49,5.91,5.49,2.72,0,4.23-.9,5.18-1.46v2.69c-.76.34-2.52,1.06-5.18,1.06-6.66,0-8.37-4.98-8.37-8.6,0-5.35,3.3-8.79,7.56-8.79,2.02,0,5.07.84,6.52,4.45.76,1.85.78,4.03.78,5.15h-12.4ZM348.59,92.19c-.31-4-3.05-5.04-4.87-5.04-2.72,0-4.76,2.04-4.96,5.04h9.83Z"/><path class="cls-4" d="M149.91,116.5h2.49v4.73h5.01v2.32h-5.01v9.41c0,1.54,0,2.91,2.55,2.91.36,0,1.01-.03,2.24-.2v2.3c-.59.08-1.46.2-2.6.2-4.56,0-4.68-2.74-4.68-5.21v-9.41h-2.13v-2.32h2.13v-4.73Z"/><path class="cls-4" d="M160.05,137.73v-23.1h2.49v8.79c1.74-2.6,4.65-2.63,5.18-2.63,2.58,0,4.12,1.37,4.73,2.63.56,1.15.73,2.16.73,5.01v9.3h-2.52v-9.3c0-2.58,0-5.35-3.56-5.35-.78,0-4.56.22-4.56,5.35v9.3h-2.49Z"/><path class="cls-4" d="M178.31,130.39c.14,3.02,1.85,5.49,5.91,5.49,2.72,0,4.23-.9,5.18-1.46v2.69c-.76.34-2.52,1.06-5.18,1.06-6.66,0-8.37-4.98-8.37-8.6,0-5.35,3.3-8.79,7.56-8.79,2.02,0,5.07.84,6.52,4.45.76,1.85.78,4.03.78,5.15h-12.4ZM188.16,128.15c-.31-4-3.05-5.04-4.87-5.04-2.72,0-4.76,2.04-4.96,5.04h9.83Z"/><path class="cls-4" d="M200.59,137.73v-23.1h2.49v8.79c1.74-2.6,4.65-2.63,5.18-2.63,2.58,0,4.12,1.37,4.73,2.63.56,1.15.73,2.16.73,5.01v9.3h-2.52v-9.3c0-2.58,0-5.35-3.56-5.35-.78,0-4.56.22-4.56,5.35v9.3h-2.49Z"/><path class="cls-4" d="M220.92,118.74h-2.94v-3.08h2.94v3.08ZM220.73,137.73h-2.55v-16.49h2.55v16.49Z"/><path class="cls-4" d="M239.29,123.28c-.48-.06-1.37-.14-2.38.45.14.31.64,1.29.64,2.8,0,4.23-3.92,5.38-6.24,5.38-.87,0-1.46-.14-1.79-.2-1.09.31-1.99,1.06-1.99,1.71,0,.59.5.81.76.92.7.22,1.76.28,4.31.42,1.54.08,6.36.34,6.36,5.01,0,5.4-6.44,5.4-7.59,5.4-5.43,0-7.48-2.55-7.48-5.12s1.9-3.86,2.46-4.23c-.56-.34-1.34-.87-1.34-2.04,0-1.32,1.12-2.38,2.18-3.02-1.93-1.32-2.38-3.19-2.38-4.51,0-3.19,2.6-5.46,6.38-5.46.81,0,2.44.11,3.92,1.04.95-.7,1.96-1.04,3.14-1.04.56,0,.76.06,1.04.14v2.35ZM230.36,136.77c-3.98,0-3.98,2.77-3.98,3.16,0,2.66,3.22,3,4.98,3,3.14,0,5.1-1.15,5.1-3.05,0-2.44-1.96-3.11-6.1-3.11ZM227.3,126.42c0,1.79,1.46,3.25,3.86,3.25,2.27,0,3.86-1.32,3.86-3.3,0-1.76-1.23-3.33-3.78-3.33-2.74,0-3.95,1.76-3.95,3.39Z"/><path class="cls-4" d="M241.81,137.73v-23.1h2.49v8.79c1.74-2.6,4.65-2.63,5.18-2.63,2.58,0,4.12,1.37,4.73,2.63.56,1.15.73,2.16.73,5.01v9.3h-2.52v-9.3c0-2.58,0-5.35-3.56-5.35-.78,0-4.56.22-4.56,5.35v9.3h-2.49Z"/><path class="cls-4" d="M260.76,130.39c.14,3.02,1.85,5.49,5.91,5.49,2.72,0,4.23-.9,5.18-1.46v2.69c-.76.34-2.52,1.06-5.18,1.06-6.66,0-8.37-4.98-8.37-8.6,0-5.35,3.3-8.79,7.56-8.79,2.02,0,5.07.84,6.52,4.45.76,1.85.78,4.03.78,5.15h-12.4ZM270.62,128.15c-.31-4-3.05-5.04-4.87-5.04-2.72,0-4.76,2.04-4.96,5.04h9.83Z"/><path class="cls-4" d="M285.54,124.12c-.78-.45-1.85-1.01-3.67-1.01-1.57,0-3.36.56-3.36,2.35,0,1.68.92,1.99,4,2.94,1.85.59,4.7,1.48,4.7,4.79,0,3.78-3.72,4.98-6.66,4.98-.5,0-2.94,0-5.35-1.32l.84-2.16c.92.48,2.32,1.18,4.56,1.18.59,0,4.09,0,4.09-2.66,0-1.85-1.88-2.38-3.5-2.86-2.58-.73-5.18-1.57-5.18-4.82,0-3.05,2.69-4.76,5.82-4.76,2.16,0,3.7.73,4.34,1.04l-.64,2.3Z"/><path class="cls-4" d="M291.03,116.5h2.49v4.73h5.01v2.32h-5.01v9.41c0,1.54,0,2.91,2.55,2.91.36,0,1.01-.03,2.24-.2v2.3c-.59.08-1.46.2-2.6.2-4.56,0-4.68-2.74-4.68-5.21v-9.41h-2.13v-2.32h2.13v-4.73Z"/><path class="cls-4" d="M319.59,121.24h2.52v23.94h-2.52v-9.66c-1.37,1.76-3.16,2.66-5.38,2.66-4.23,0-7.39-3.42-7.39-8.68s3.16-8.71,7.39-8.71c2.21,0,4,.9,5.38,2.66v-2.21ZM314.58,123.11c-4.03,0-5.24,3.56-5.24,6.38s1.2,6.38,5.24,6.38c2.04,0,5.15-1.29,5.15-6.38s-3.11-6.38-5.15-6.38Z"/><path class="cls-4" d="M339.22,121.24v16.49h-2.52v-2.18c-1.74,2.6-4.65,2.63-5.18,2.63-2.58,0-4.09-1.37-4.73-2.63-.62-1.26-.7-2.41-.7-5.01v-9.3h2.49v9.3c0,2.6,0,5.35,3.56,5.35.78,0,4.56-.2,4.56-5.35v-9.3h2.52Z"/><path class="cls-4" d="M343.5,122.16c.64-.36,2.49-1.37,5.35-1.37.73,0,3.75,0,5.54,2.07,1.04,1.2,1.12,2.52,1.12,4.2v7.56c0,1.76.34,2.49.62,3.11h-2.63c-.2-.39-.42-.84-.45-2.04-1.57,1.68-3.61,2.49-5.91,2.49-3.58,0-5.21-2.27-5.21-4.82,0-4.93,5.01-5.52,7.87-5.85,2.35-.28,3.16-.36,3.16-1.71,0-1.9-2.04-2.69-4.14-2.69-2.55,0-4.31,1.06-5.1,1.54l-.22-2.49ZM353.02,129.08c-.84.34-1.09.39-3.5.67-2.44.31-5.12.78-5.12,3.53,0,1.6,1.06,2.66,2.91,2.66s4.51-1.12,5.71-3.42v-3.44Z"/><path class="cls-4" d="M364.56,137.73h-1.54c-3.64,0-3.64-1.9-3.64-3.67v-19.43h2.55v19.35c0,.73,0,1.46,1.34,1.46h1.29v2.3Z"/><path class="cls-4" d="M370.1,118.74h-2.94v-3.08h2.94v3.08ZM369.91,137.73h-2.55v-16.49h2.55v16.49Z"/><path class="cls-4" d="M374.89,116.5h2.49v4.73h5.01v2.32h-5.01v9.41c0,1.54,0,2.91,2.55,2.91.36,0,1.01-.03,2.24-.2v2.3c-.59.08-1.46.2-2.6.2-4.56,0-4.68-2.74-4.68-5.21v-9.41h-2.13v-2.32h2.13v-4.73Z"/><path class="cls-4" d="M389.23,136.52l-6.08-15.29h2.69l4.7,11.98,4.7-11.98h2.69l-9.6,23.94h-2.49l3.39-8.65Z"/><path class="cls-4" d="M187.11,159.41c1.4-1.76,3.16-2.66,5.4-2.66,4.2,0,7.36,3.42,7.36,8.71s-3.16,8.68-7.36,8.68c-2.24,0-4-.9-5.4-2.66v9.66h-2.49v-23.94h2.49v2.21ZM192.15,171.84c4,0,5.24-3.56,5.24-6.38s-1.23-6.38-5.24-6.38c-2.07,0-5.15,1.26-5.15,6.38s3.08,6.38,5.15,6.38Z"/><path class="cls-4" d="M202.6,173.69v-16.49h2.49v2.18c1.76-2.69,4.26-2.63,5.32-2.63v2.32c-3.58-.06-5.32,1.68-5.32,5.32v9.3h-2.49Z"/><path class="cls-4" d="M219.28,156.75c4.31,0,8.15,3.22,8.15,8.71s-3.84,8.68-8.12,8.68-8.15-3.22-8.15-8.68,3.86-8.71,8.12-8.71ZM219.28,171.84c2.41,0,5.63-1.57,5.63-6.38s-3.22-6.38-5.6-6.38-5.63,1.54-5.63,6.38,3.25,6.38,5.6,6.38Z"/><path class="cls-4" d="M242.38,171.51c-1.37,1.74-3.16,2.63-5.38,2.63-4.23,0-7.39-3.42-7.39-8.68s3.16-8.71,7.39-8.71c2.21,0,4,.9,5.38,2.66v-8.82h2.52v23.1h-2.52v-2.18ZM237.37,159.08c-4.03,0-5.24,3.56-5.24,6.38s1.2,6.38,5.24,6.38c2.04,0,5.15-1.29,5.15-6.38s-3.11-6.38-5.15-6.38Z"/><path class="cls-4" d="M262.29,157.2v16.49h-2.52v-2.18c-1.74,2.6-4.65,2.63-5.18,2.63-2.58,0-4.09-1.37-4.73-2.63-.62-1.26-.7-2.41-.7-5.01v-9.3h2.49v9.3c0,2.6,0,5.35,3.56,5.35.78,0,4.56-.2,4.56-5.35v-9.3h2.52Z"/><path class="cls-4" d="M278.73,173.02c-.62.34-2.1,1.12-4.84,1.12-5.71,0-8.6-3.84-8.6-8.57,0-5.32,3.67-8.82,8.48-8.82,1.85,0,3.42.45,4.96,1.46l-.7,2.3c-.48-.39-1.76-1.46-4.14-1.46-3.28,0-6.08,2.1-6.08,6.41,0,3.7,2.1,6.38,6.13,6.38,2.55,0,4.17-1.06,4.79-1.46v2.63Z"/><path class="cls-4" d="M282.7,152.47h2.49v4.73h5.01v2.32h-5.01v9.41c0,1.54,0,2.91,2.55,2.91.36,0,1.01-.03,2.24-.2v2.3c-.59.08-1.46.2-2.6.2-4.56,0-4.68-2.74-4.68-5.21v-9.41h-2.13v-2.32h2.13v-4.73Z"/><path class="cls-4" d="M301.85,160.08c-.78-.45-1.85-1.01-3.67-1.01-1.57,0-3.36.56-3.36,2.35,0,1.68.92,1.99,4,2.94,1.85.59,4.7,1.48,4.7,4.79,0,3.78-3.72,4.98-6.66,4.98-.5,0-2.94,0-5.35-1.32l.84-2.16c.92.48,2.32,1.18,4.56,1.18.59,0,4.09,0,4.09-2.66,0-1.85-1.88-2.38-3.5-2.86-2.58-.73-5.18-1.57-5.18-4.82,0-3.05,2.69-4.76,5.82-4.76,2.16,0,3.7.73,4.34,1.04l-.64,2.3Z"/><path class="cls-4" d="M314.12,158.12c.64-.36,2.49-1.37,5.35-1.37.73,0,3.75,0,5.54,2.07,1.04,1.2,1.12,2.52,1.12,4.2v7.56c0,1.76.34,2.49.62,3.11h-2.63c-.2-.39-.42-.84-.45-2.04-1.57,1.68-3.61,2.49-5.91,2.49-3.58,0-5.21-2.27-5.21-4.82,0-4.93,5.01-5.52,7.87-5.85,2.35-.28,3.16-.36,3.16-1.71,0-1.9-2.04-2.69-4.14-2.69-2.55,0-4.31,1.06-5.1,1.54l-.22-2.49ZM323.64,165.04c-.84.34-1.09.39-3.5.67-2.44.31-5.12.78-5.12,3.53,0,1.6,1.06,2.66,2.91,2.66s4.51-1.12,5.71-3.42v-3.44Z"/><path class="cls-4" d="M329.77,173.69v-16.49h2.49v2.18c1.26-1.9,3.36-2.63,5.18-2.63,2.58,0,4.12,1.37,4.73,2.63.62,1.26.73,2.49.73,5.01v9.3h-2.52v-9.3c0-2.58,0-5.35-3.56-5.35-.78,0-4.56.22-4.56,5.35v9.3h-2.49Z"/><path class="cls-4" d="M358.33,171.51c-1.37,1.74-3.16,2.63-5.38,2.63-4.23,0-7.39-3.42-7.39-8.68s3.16-8.71,7.39-8.71c2.21,0,4,.9,5.38,2.66v-8.82h2.52v23.1h-2.52v-2.18ZM353.32,159.08c-4.03,0-5.24,3.56-5.24,6.38s1.2,6.38,5.24,6.38c2.04,0,5.15-1.29,5.15-6.38s-3.11-6.38-5.15-6.38Z"/><path class="cls-4" d="M168.18,209.66v-16.49h2.49v2.18c1.76-2.69,4.26-2.63,5.32-2.63v2.32c-3.58-.06-5.32,1.68-5.32,5.32v9.3h-2.49Z"/><path class="cls-4" d="M180.67,202.32c.14,3.02,1.85,5.49,5.91,5.49,2.72,0,4.23-.9,5.18-1.46v2.69c-.76.34-2.52,1.06-5.18,1.06-6.66,0-8.37-4.98-8.37-8.6,0-5.35,3.3-8.79,7.56-8.79,2.02,0,5.07.84,6.52,4.45.76,1.85.78,4.03.78,5.15h-12.4ZM190.53,200.08c-.31-4-3.05-5.04-4.87-5.04-2.72,0-4.76,2.04-4.96,5.04h9.83Z"/><path class="cls-4" d="M208.33,207.47c-1.37,1.74-3.16,2.63-5.38,2.63-4.23,0-7.39-3.42-7.39-8.68s3.16-8.71,7.39-8.71c2.21,0,4,.9,5.38,2.66v-8.82h2.52v23.1h-2.52v-2.18ZM203.32,195.04c-4.03,0-5.24,3.56-5.24,6.38s1.2,6.38,5.24,6.38c2.04,0,5.15-1.29,5.15-6.38s-3.11-6.38-5.15-6.38Z"/><path class="cls-4" d="M227.96,193.16v16.49h-2.52v-2.18c-1.74,2.6-4.65,2.63-5.18,2.63-2.58,0-4.09-1.37-4.73-2.63-.62-1.26-.7-2.41-.7-5.01v-9.3h2.49v9.3c0,2.6,0,5.35,3.56,5.35.78,0,4.56-.2,4.56-5.35v-9.3h2.52Z"/><path class="cls-4" d="M244.68,208.98c-.62.34-2.1,1.12-4.84,1.12-5.71,0-8.6-3.84-8.6-8.57,0-5.32,3.67-8.82,8.48-8.82,1.85,0,3.42.45,4.96,1.46l-.7,2.3c-.48-.39-1.76-1.46-4.14-1.46-3.28,0-6.08,2.1-6.08,6.41,0,3.7,2.1,6.38,6.13,6.38,2.55,0,4.17-1.06,4.79-1.46v2.63Z"/><path class="cls-4" d="M249.33,202.32c.14,3.02,1.85,5.49,5.91,5.49,2.72,0,4.23-.9,5.18-1.46v2.69c-.76.34-2.52,1.06-5.18,1.06-6.66,0-8.37-4.98-8.37-8.6,0-5.35,3.3-8.79,7.56-8.79,2.02,0,5.07.84,6.52,4.45.76,1.85.78,4.03.78,5.15h-12.4ZM259.18,200.08c-.31-4-3.05-5.04-4.87-5.04-2.72,0-4.76,2.04-4.96,5.04h9.83Z"/><path class="cls-4" d="M276.99,207.47c-1.37,1.74-3.16,2.63-5.38,2.63-4.23,0-7.39-3.42-7.39-8.68s3.16-8.71,7.39-8.71c2.21,0,4,.9,5.38,2.66v-8.82h2.52v23.1h-2.52v-2.18ZM271.98,195.04c-4.03,0-5.24,3.56-5.24,6.38s1.2,6.38,5.24,6.38c2.04,0,5.15-1.29,5.15-6.38s-3.11-6.38-5.15-6.38Z"/><path class="cls-4" d="M292.78,195.38c1.4-1.76,3.16-2.66,5.4-2.66,4.2,0,7.36,3.42,7.36,8.71s-3.16,8.68-7.36,8.68c-2.24,0-4-.9-5.4-2.66v9.66h-2.49v-23.94h2.49v2.21ZM297.82,207.81c4,0,5.24-3.56,5.24-6.38s-1.23-6.38-5.24-6.38c-2.07,0-5.15,1.26-5.15,6.38s3.08,6.38,5.15,6.38Z"/><path class="cls-4" d="M308.97,209.66v-16.49h2.49v2.18c1.76-2.69,4.26-2.63,5.32-2.63v2.32c-3.58-.06-5.32,1.68-5.32,5.32v9.3h-2.49Z"/><path class="cls-4" d="M322.83,190.67h-2.94v-3.08h2.94v3.08ZM322.63,209.66h-2.55v-16.49h2.55v16.49Z"/><path class="cls-4" d="M339.6,208.98c-.62.34-2.1,1.12-4.84,1.12-5.71,0-8.6-3.84-8.6-8.57,0-5.32,3.67-8.82,8.48-8.82,1.85,0,3.42.45,4.96,1.46l-.7,2.3c-.48-.39-1.76-1.46-4.14-1.46-3.28,0-6.08,2.1-6.08,6.41,0,3.7,2.1,6.38,6.13,6.38,2.55,0,4.17-1.06,4.79-1.46v2.63Z"/><path class="cls-4" d="M344.52,202.32c.14,3.02,1.85,5.49,5.91,5.49,2.72,0,4.23-.9,5.18-1.46v2.69c-.76.34-2.52,1.06-5.18,1.06-6.66,0-8.37-4.98-8.37-8.6,0-5.35,3.3-8.79,7.56-8.79,2.02,0,5.07.84,6.52,4.45.76,1.85.78,4.03.78,5.15h-12.4ZM354.38,200.08c-.31-4-3.05-5.04-4.87-5.04-2.72,0-4.76,2.04-4.96,5.04h9.83Z"/><path class="cls-4" d="M369.02,196.05c-.78-.45-1.85-1.01-3.67-1.01-1.57,0-3.36.56-3.36,2.35,0,1.68.92,1.99,4,2.94,1.85.59,4.7,1.48,4.7,4.79,0,3.78-3.72,4.98-6.66,4.98-.5,0-2.94,0-5.35-1.32l.84-2.16c.92.48,2.32,1.18,4.56,1.18.59,0,4.09,0,4.09-2.66,0-1.85-1.88-2.38-3.5-2.86-2.58-.73-5.18-1.57-5.18-4.82,0-3.05,2.69-4.76,5.82-4.76,2.16,0,3.7.73,4.34,1.04l-.64,2.3Z"/><path class="cls-4" d="M377.42,206.02v3.64h-3.56v-3.64h3.56Z"/><path class="cls-4" d="M46.75,342.23h-3.67l-6.69-22.06h2.8l5.71,19.71,5.54-19.71h3.72l5.54,19.71,5.71-19.71h2.8l-6.69,22.06h-3.67l-5.57-19.71-5.54,19.71Z"/><path class="cls-4" d="M71.53,334.89c.14,3.02,1.85,5.49,5.91,5.49,2.72,0,4.23-.9,5.18-1.46v2.69c-.76.34-2.52,1.06-5.18,1.06-6.66,0-8.37-4.98-8.37-8.6,0-5.35,3.3-8.79,7.56-8.79,2.02,0,5.07.84,6.52,4.45.76,1.85.78,4.03.78,5.15h-12.4ZM81.39,332.65c-.31-4-3.05-5.04-4.87-5.04-2.72,0-4.76,2.04-4.96,5.04h9.83Z"/><path class="cls-4" d="M106.31,341.55c-.62.34-2.1,1.12-4.84,1.12-5.71,0-8.6-3.84-8.6-8.57,0-5.32,3.67-8.82,8.48-8.82,1.85,0,3.42.45,4.96,1.46l-.7,2.3c-.48-.39-1.76-1.46-4.14-1.46-3.28,0-6.08,2.1-6.08,6.41,0,3.7,2.1,6.38,6.13,6.38,2.55,0,4.17-1.06,4.79-1.46v2.63Z"/><path class="cls-4" d="M110.39,326.66c.64-.36,2.49-1.37,5.35-1.37.73,0,3.75,0,5.54,2.07,1.04,1.2,1.12,2.52,1.12,4.2v7.56c0,1.76.34,2.49.62,3.11h-2.63c-.2-.39-.42-.84-.45-2.04-1.57,1.68-3.61,2.49-5.91,2.49-3.58,0-5.21-2.27-5.21-4.82,0-4.93,5.01-5.52,7.87-5.85,2.35-.28,3.16-.36,3.16-1.71,0-1.9-2.04-2.69-4.14-2.69-2.55,0-4.31,1.06-5.1,1.54l-.22-2.49ZM119.91,333.57c-.84.34-1.09.39-3.5.67-2.44.31-5.12.78-5.12,3.53,0,1.6,1.06,2.66,2.91,2.66s4.51-1.12,5.71-3.42v-3.44Z"/><path class="cls-4" d="M126.75,342.23v-16.49h2.49v2.18c1.26-1.9,3.36-2.63,5.18-2.63,2.58,0,4.12,1.37,4.73,2.63.62,1.26.73,2.49.73,5.01v9.3h-2.52v-9.3c0-2.58,0-5.35-3.56-5.35-.78,0-4.56.22-4.56,5.35v9.3h-2.49Z"/><path class="cls-4" d="M162.53,340.04c-1.37,1.74-3.16,2.63-5.38,2.63-4.23,0-7.39-3.42-7.39-8.68s3.16-8.71,7.39-8.71c2.21,0,4,.9,5.38,2.66v-8.82h2.52v23.1h-2.52v-2.18ZM157.52,327.61c-4.03,0-5.24,3.56-5.24,6.38s1.2,6.38,5.24,6.38c2.04,0,5.15-1.29,5.15-6.38s-3.11-6.38-5.15-6.38Z"/><path class="cls-4" d="M170.9,334.89c.14,3.02,1.85,5.49,5.91,5.49,2.72,0,4.23-.9,5.18-1.46v2.69c-.76.34-2.52,1.06-5.18,1.06-6.66,0-8.37-4.98-8.37-8.6,0-5.35,3.3-8.79,7.56-8.79,2.02,0,5.07.84,6.52,4.45.76,1.85.78,4.03.78,5.15h-12.4ZM180.76,332.65c-.31-4-3.05-5.04-4.87-5.04-2.72,0-4.76,2.04-4.96,5.04h9.83Z"/><path class="cls-4" d="M192.07,342.23h-1.54c-3.64,0-3.64-1.9-3.64-3.67v-19.43h2.55v19.35c0,.73,0,1.46,1.34,1.46h1.29v2.3Z"/><path class="cls-4" d="M197.61,323.24h-2.94v-3.08h2.94v3.08ZM197.42,342.23h-2.55v-16.49h2.55v16.49Z"/><path class="cls-4" d="M211.33,325.73h2.69l-5.32,16.49h-3.33l-5.32-16.49h2.69l4.31,13.97,4.28-13.97Z"/><path class="cls-4" d="M218.02,334.89c.14,3.02,1.85,5.49,5.91,5.49,2.72,0,4.23-.9,5.18-1.46v2.69c-.76.34-2.52,1.06-5.18,1.06-6.66,0-8.37-4.98-8.37-8.6,0-5.35,3.3-8.79,7.56-8.79,2.02,0,5.07.84,6.52,4.45.76,1.85.78,4.03.78,5.15h-12.4ZM227.88,332.65c-.31-4-3.05-5.04-4.87-5.04-2.72,0-4.76,2.04-4.96,5.04h9.83Z"/><path class="cls-4" d="M233.79,342.23v-16.49h2.49v2.18c1.76-2.69,4.26-2.63,5.32-2.63v2.32c-3.58-.06-5.32,1.68-5.32,5.32v9.3h-2.49Z"/><path class="cls-4" d="M46.51,360.01c4.31,0,8.15,3.22,8.15,8.71s-3.84,8.68-8.12,8.68-8.15-3.22-8.15-8.68,3.86-8.71,8.12-8.71ZM46.51,375.1c2.41,0,5.63-1.57,5.63-6.38s-3.22-6.38-5.6-6.38-5.63,1.54-5.63,6.38,3.25,6.38,5.6,6.38Z"/><path class="cls-4" d="M70.42,360.46v16.49h-2.52v-2.18c-1.74,2.6-4.65,2.63-5.18,2.63-2.58,0-4.09-1.37-4.73-2.63-.62-1.26-.7-2.41-.7-5.01v-9.3h2.49v9.3c0,2.6,0,5.35,3.56,5.35.78,0,4.56-.2,4.56-5.35v-9.3h2.52Z"/><path class="cls-4" d="M74.65,376.95v-16.49h2.49v2.18c1.76-2.69,4.26-2.63,5.32-2.63v2.32c-3.58-.06-5.32,1.68-5.32,5.32v9.3h-2.49Z"/><path class="cls-4" d="M93.16,362.67c1.4-1.76,3.16-2.66,5.4-2.66,4.2,0,7.36,3.42,7.36,8.71s-3.16,8.68-7.36,8.68c-2.24,0-4-.9-5.4-2.66v9.66h-2.49v-23.94h2.49v2.21ZM98.2,375.1c4,0,5.24-3.56,5.24-6.38s-1.23-6.38-5.24-6.38c-2.07,0-5.15,1.26-5.15,6.38s3.08,6.38,5.15,6.38Z"/><path class="cls-4" d="M108.64,376.95v-16.49h2.49v2.18c1.76-2.69,4.26-2.63,5.32-2.63v2.32c-3.58-.06-5.32,1.68-5.32,5.32v9.3h-2.49Z"/><path class="cls-4" d="M126.03,360.01c4.31,0,8.15,3.22,8.15,8.71s-3.84,8.68-8.12,8.68-8.15-3.22-8.15-8.68,3.86-8.71,8.12-8.71ZM126.03,375.1c2.41,0,5.63-1.57,5.63-6.38s-3.22-6.38-5.6-6.38-5.63,1.54-5.63,6.38,3.25,6.38,5.6,6.38Z"/><path class="cls-4" d="M148.71,374.77c-1.37,1.74-3.16,2.63-5.38,2.63-4.23,0-7.39-3.42-7.39-8.68s3.16-8.71,7.39-8.71c2.21,0,4,.9,5.38,2.66v-8.82h2.52v23.1h-2.52v-2.18ZM143.7,362.33c-4.03,0-5.24,3.56-5.24,6.38s1.2,6.38,5.24,6.38c2.04,0,5.15-1.29,5.15-6.38s-3.11-6.38-5.15-6.38Z"/><path class="cls-4" d="M168.34,360.46v16.49h-2.52v-2.18c-1.74,2.6-4.65,2.63-5.18,2.63-2.58,0-4.09-1.37-4.73-2.63-.62-1.26-.7-2.41-.7-5.01v-9.3h2.49v9.3c0,2.6,0,5.35,3.56,5.35.78,0,4.56-.2,4.56-5.35v-9.3h2.52Z"/><path class="cls-4" d="M184.77,376.28c-.62.34-2.1,1.12-4.84,1.12-5.71,0-8.6-3.84-8.6-8.57,0-5.32,3.67-8.82,8.48-8.82,1.85,0,3.42.45,4.96,1.46l-.7,2.3c-.48-.39-1.76-1.46-4.14-1.46-3.28,0-6.08,2.1-6.08,6.41,0,3.7,2.1,6.38,6.13,6.38,2.55,0,4.17-1.06,4.79-1.46v2.63Z"/><path class="cls-4" d="M188.61,355.73h2.49v4.73h5.01v2.32h-5.01v9.41c0,1.54,0,2.91,2.55,2.91.36,0,1.01-.03,2.24-.2v2.3c-.59.08-1.46.2-2.6.2-4.56,0-4.68-2.74-4.68-5.21v-9.41h-2.13v-2.32h2.13v-4.73Z"/><path class="cls-4" d="M207.76,363.34c-.78-.45-1.85-1.01-3.67-1.01-1.57,0-3.36.56-3.36,2.35,0,1.68.92,1.99,4,2.94,1.85.59,4.7,1.48,4.7,4.79,0,3.78-3.72,4.98-6.66,4.98-.5,0-2.94,0-5.35-1.32l.84-2.16c.92.48,2.32,1.18,4.56,1.18.59,0,4.09,0,4.09-2.66,0-1.85-1.88-2.38-3.5-2.86-2.58-.73-5.18-1.57-5.18-4.82,0-3.05,2.69-4.76,5.82-4.76,2.16,0,3.7.73,4.34,1.04l-.64,2.3Z"/><path class="cls-4" d="M222.24,357.97h-2.94v-3.08h2.94v3.08ZM222.04,376.95h-2.55v-16.49h2.55v16.49Z"/><path class="cls-4" d="M226.24,376.95v-16.49h2.49v2.18c1.26-1.9,3.36-2.63,5.18-2.63,2.58,0,4.12,1.37,4.73,2.63.62,1.26.73,2.49.73,5.01v9.3h-2.52v-9.3c0-2.58,0-5.35-3.56-5.35-.78,0-4.56.22-4.56,5.35v9.3h-2.49Z"/><path class="cls-4" d="M47.35,396.11c.64-.36,2.49-1.37,5.35-1.37.73,0,3.75,0,5.54,2.07,1.04,1.2,1.12,2.52,1.12,4.2v7.56c0,1.76.34,2.49.62,3.11h-2.63c-.2-.39-.42-.84-.45-2.04-1.57,1.68-3.61,2.49-5.91,2.49-3.58,0-5.21-2.27-5.21-4.82,0-4.93,5.01-5.52,7.87-5.85,2.35-.28,3.16-.36,3.16-1.71,0-1.9-2.04-2.69-4.14-2.69-2.55,0-4.31,1.06-5.1,1.54l-.22-2.49ZM56.87,403.02c-.84.34-1.09.39-3.5.67-2.44.31-5.12.78-5.12,3.53,0,1.6,1.06,2.66,2.91,2.66s4.51-1.12,5.71-3.42v-3.44Z"/><path class="cls-4" d="M72.16,411.67h-2.49v-23.1h2.49v8.82c1.4-1.76,3.16-2.66,5.4-2.66,4.2,0,7.36,3.42,7.36,8.71s-3.16,8.68-7.36,8.68c-2.24,0-4-.9-5.4-2.66v2.21ZM77.2,409.83c4,0,5.24-3.56,5.24-6.38s-1.23-6.38-5.24-6.38c-2.07,0-5.15,1.26-5.15,6.38s3.08,6.38,5.15,6.38Z"/><path class="cls-4" d="M88.35,411.67v-16.49h2.49v2.18c1.76-2.69,4.26-2.63,5.32-2.63v2.32c-3.58-.06-5.32,1.68-5.32,5.32v9.3h-2.49Z"/><path class="cls-4" d="M102.21,392.69h-2.94v-3.08h2.94v3.08ZM102.01,411.67h-2.55v-16.49h2.55v16.49Z"/><path class="cls-4" d="M107.38,404.34c.14,3.02,1.85,5.49,5.91,5.49,2.72,0,4.23-.9,5.18-1.46v2.69c-.76.34-2.52,1.06-5.18,1.06-6.66,0-8.37-4.98-8.37-8.6,0-5.35,3.3-8.79,7.56-8.79,2.02,0,5.07.84,6.52,4.45.76,1.85.78,4.03.78,5.15h-12.4ZM117.24,402.1c-.31-4-3.05-5.04-4.87-5.04-2.72,0-4.76,2.04-4.96,5.04h9.83Z"/><path class="cls-4" d="M129.17,395.18v2.32h-3.05v14.17h-2.49v-14.17h-2.18v-2.32h2.18v-1.96c0-1.4,0-4.65,4.23-4.65.56,0,.98.08,1.29.14l-.2,2.24c-.22-.03-.45-.06-.81-.06-2.02,0-2.02,1.12-2.02,2.32v1.96h3.05Z"/><path class="cls-4" d="M140.73,397.39c1.4-1.76,3.16-2.66,5.4-2.66,4.2,0,7.36,3.42,7.36,8.71s-3.16,8.68-7.36,8.68c-2.24,0-4-.9-5.4-2.66v9.66h-2.49v-23.94h2.49v2.21ZM145.77,409.83c4,0,5.24-3.56,5.24-6.38s-1.23-6.38-5.24-6.38c-2.07,0-5.15,1.26-5.15,6.38s3.08,6.38,5.15,6.38Z"/><path class="cls-4" d="M158.51,404.34c.14,3.02,1.85,5.49,5.91,5.49,2.72,0,4.23-.9,5.18-1.46v2.69c-.76.34-2.52,1.06-5.18,1.06-6.66,0-8.37-4.98-8.37-8.6,0-5.35,3.3-8.79,7.56-8.79,2.02,0,5.07.84,6.52,4.45.76,1.85.78,4.03.78,5.15h-12.4ZM168.37,402.1c-.31-4-3.05-5.04-4.87-5.04-2.72,0-4.76,2.04-4.96,5.04h9.83Z"/><path class="cls-4" d="M174.28,411.67v-16.49h2.49v2.18c1.76-2.69,4.26-2.63,5.32-2.63v2.32c-3.58-.06-5.32,1.68-5.32,5.32v9.3h-2.49Z"/><path class="cls-4" d="M188.14,392.69h-2.94v-3.08h2.94v3.08ZM187.94,411.67h-2.55v-16.49h2.55v16.49Z"/><path class="cls-4" d="M198.91,394.73c4.31,0,8.15,3.22,8.15,8.71s-3.84,8.68-8.12,8.68-8.15-3.22-8.15-8.68,3.86-8.71,8.12-8.71ZM198.91,409.83c2.41,0,5.63-1.57,5.63-6.38s-3.22-6.38-5.6-6.38-5.63,1.54-5.63,6.38,3.25,6.38,5.6,6.38Z"/><path class="cls-4" d="M222.01,409.49c-1.37,1.74-3.16,2.63-5.38,2.63-4.23,0-7.39-3.42-7.39-8.68s3.16-8.71,7.39-8.71c2.21,0,4,.9,5.38,2.66v-8.82h2.52v23.1h-2.52v-2.18ZM217,397.06c-4.03,0-5.24,3.56-5.24,6.38s1.2,6.38,5.24,6.38c2.04,0,5.15-1.29,5.15-6.38s-3.11-6.38-5.15-6.38Z"/><path class="cls-4" d="M232.21,408.03v3.64h-3.56v-3.64h3.56Z"/><path class="cls-4" d="M300.5,342.22h-3.67l-6.69-22.06h2.8l5.71,19.71,5.54-19.71h3.72l5.54,19.71,5.71-19.71h2.8l-6.69,22.06h-3.67l-5.57-19.71-5.54,19.71Z"/><path class="cls-4" d="M325.28,334.89c.14,3.02,1.85,5.49,5.91,5.49,2.72,0,4.23-.9,5.18-1.46v2.69c-.76.34-2.52,1.06-5.18,1.06-6.66,0-8.37-4.98-8.37-8.6,0-5.35,3.3-8.79,7.56-8.79,2.02,0,5.07.84,6.52,4.45.76,1.85.78,4.03.78,5.15h-12.4ZM335.13,332.65c-.31-4-3.05-5.04-4.87-5.04-2.72,0-4.76,2.04-4.96,5.04h9.83Z"/><path class="cls-4" d="M346.92,326.66c.64-.36,2.49-1.37,5.35-1.37.73,0,3.75,0,5.54,2.07,1.04,1.2,1.12,2.52,1.12,4.2v7.56c0,1.76.34,2.49.62,3.11h-2.63c-.2-.39-.42-.84-.45-2.04-1.57,1.68-3.61,2.49-5.91,2.49-3.58,0-5.21-2.27-5.21-4.82,0-4.93,5.01-5.52,7.87-5.85,2.35-.28,3.16-.36,3.16-1.71,0-1.9-2.04-2.69-4.14-2.69-2.55,0-4.31,1.06-5.1,1.54l-.22-2.49ZM356.44,333.57c-.84.34-1.09.39-3.5.67-2.44.31-5.12.78-5.12,3.53,0,1.6,1.06,2.66,2.91,2.66s4.51-1.12,5.71-3.42v-3.44Z"/><path class="cls-4" d="M368.4,342.22h-1.54c-3.64,0-3.64-1.9-3.64-3.67v-19.43h2.55v19.35c0,.73,0,1.46,1.34,1.46h1.29v2.3Z"/><path class="cls-4" d="M379.99,328.62c-.78-.45-1.85-1.01-3.67-1.01-1.57,0-3.36.56-3.36,2.35,0,1.68.92,1.99,4,2.94,1.85.59,4.7,1.48,4.7,4.79,0,3.78-3.72,4.98-6.66,4.98-.5,0-2.94,0-5.35-1.32l.84-2.16c.92.48,2.32,1.18,4.56,1.18.59,0,4.09,0,4.09-2.66,0-1.85-1.88-2.38-3.5-2.86-2.58-.73-5.18-1.57-5.18-4.82,0-3.05,2.69-4.76,5.82-4.76,2.16,0,3.7.73,4.34,1.04l-.64,2.3Z"/><path class="cls-4" d="M391.47,325.29c4.31,0,8.15,3.22,8.15,8.71s-3.84,8.68-8.12,8.68-8.15-3.22-8.15-8.68,3.86-8.71,8.12-8.71ZM391.47,340.38c2.41,0,5.63-1.57,5.63-6.38s-3.22-6.38-5.6-6.38-5.63,1.54-5.63,6.38,3.25,6.38,5.6,6.38Z"/><path class="cls-4" d="M414.15,325.73h2.52v23.94h-2.52v-9.66c-1.37,1.76-3.16,2.66-5.38,2.66-4.23,0-7.39-3.42-7.39-8.68s3.16-8.71,7.39-8.71c2.21,0,4,.9,5.38,2.66v-2.21ZM409.14,327.61c-4.03,0-5.24,3.56-5.24,6.38s1.2,6.38,5.24,6.38c2.04,0,5.15-1.29,5.15-6.38s-3.11-6.38-5.15-6.38Z"/><path class="cls-4" d="M433.36,325.73v16.49h-2.52v-2.18c-1.74,2.6-4.65,2.63-5.18,2.63-2.58,0-4.09-1.37-4.73-2.63-.62-1.26-.7-2.41-.7-5.01v-9.3h2.49v9.3c0,2.6,0,5.35,3.56,5.35.78,0,4.56-.2,4.56-5.35v-9.3h2.52Z"/><path class="cls-4" d="M440.27,323.24h-2.94v-3.08h2.94v3.08ZM440.08,342.22h-2.55v-16.49h2.55v16.49Z"/><path class="cls-4" d="M456.76,341.55c-.62.34-2.1,1.12-4.84,1.12-5.71,0-8.6-3.84-8.6-8.57,0-5.32,3.67-8.82,8.48-8.82,1.85,0,3.42.45,4.96,1.46l-.7,2.3c-.48-.39-1.76-1.46-4.14-1.46-3.28,0-6.08,2.1-6.08,6.41,0,3.7,2.1,6.38,6.13,6.38,2.55,0,4.17-1.06,4.79-1.46v2.63Z"/><path class="cls-4" d="M462.59,332.26l7.03-6.52h3.33l-7.53,6.94,8.46,9.55h-3.28l-8.01-9.32v9.32h-2.49v-23.1h2.49v13.13Z"/><path class="cls-4" d="M481.12,342.22h-1.54c-3.64,0-3.64-1.9-3.64-3.67v-19.43h2.55v19.35c0,.73,0,1.46,1.34,1.46h1.29v2.3Z"/><path class="cls-4" d="M487.9,341.02l-6.08-15.29h2.69l4.7,11.98,4.7-11.98h2.69l-9.6,23.94h-2.49l3.39-8.65Z"/><path class="cls-4" d="M321.29,376.95v-16.49h2.49v2.18c1.76-2.69,4.26-2.63,5.32-2.63v2.32c-3.58-.06-5.32,1.68-5.32,5.32v9.3h-2.49Z"/><path class="cls-4" d="M333.07,369.61c.14,3.02,1.85,5.49,5.91,5.49,2.72,0,4.23-.9,5.18-1.46v2.69c-.76.34-2.52,1.06-5.18,1.06-6.66,0-8.37-4.98-8.37-8.6,0-5.35,3.3-8.79,7.56-8.79,2.02,0,5.07.84,6.52,4.45.76,1.85.78,4.03.78,5.15h-12.4ZM342.93,367.37c-.31-4-3.05-5.04-4.87-5.04-2.72,0-4.76,2.04-4.96,5.04h9.83Z"/><path class="cls-4" d="M357.85,363.34c-.78-.45-1.85-1.01-3.67-1.01-1.57,0-3.36.56-3.36,2.35,0,1.68.92,1.99,4,2.94,1.85.59,4.7,1.48,4.7,4.79,0,3.78-3.72,4.98-6.66,4.98-.5,0-2.94,0-5.35-1.32l.84-2.16c.92.48,2.32,1.18,4.56,1.18.59,0,4.09,0,4.09-2.66,0-1.85-1.88-2.38-3.5-2.86-2.58-.73-5.18-1.57-5.18-4.82,0-3.05,2.69-4.76,5.82-4.76,2.16,0,3.7.73,4.34,1.04l-.64,2.3Z"/><path class="cls-4" d="M364.63,362.67c1.4-1.76,3.16-2.66,5.4-2.66,4.2,0,7.36,3.42,7.36,8.71s-3.16,8.68-7.36,8.68c-2.24,0-4-.9-5.4-2.66v9.66h-2.49v-23.94h2.49v2.21ZM369.67,375.1c4,0,5.24-3.56,5.24-6.38s-1.23-6.38-5.24-6.38c-2.07,0-5.15,1.26-5.15,6.38s3.08,6.38,5.15,6.38Z"/><path class="cls-4" d="M387.31,360.01c4.31,0,8.15,3.22,8.15,8.71s-3.84,8.68-8.12,8.68-8.15-3.22-8.15-8.68,3.86-8.71,8.12-8.71ZM387.31,375.1c2.41,0,5.63-1.57,5.63-6.38s-3.22-6.38-5.6-6.38-5.63,1.54-5.63,6.38,3.25,6.38,5.6,6.38Z"/><path class="cls-4" d="M398.09,376.95v-16.49h2.49v2.18c1.26-1.9,3.36-2.63,5.18-2.63,2.58,0,4.12,1.37,4.73,2.63s.73,2.49.73,5.01v9.3h-2.52v-9.3c0-2.58,0-5.35-3.56-5.35-.78,0-4.56.22-4.56,5.35v9.3h-2.49Z"/><path class="cls-4" d="M427.07,374.77c-1.37,1.74-3.16,2.63-5.38,2.63-4.23,0-7.39-3.42-7.39-8.68s3.16-8.71,7.39-8.71c2.21,0,4,.9,5.38,2.66v-8.82h2.52v23.1h-2.52v-2.18ZM422.06,362.33c-4.03,0-5.24,3.56-5.24,6.38s1.2,6.38,5.24,6.38c2.04,0,5.15-1.29,5.15-6.38s-3.11-6.38-5.15-6.38Z"/><path class="cls-4" d="M440.87,355.73h2.49v4.73h5.01v2.32h-5.01v9.41c0,1.54,0,2.91,2.55,2.91.36,0,1.01-.03,2.24-.2v2.3c-.59.08-1.46.2-2.6.2-4.56,0-4.68-2.74-4.68-5.21v-9.41h-2.13v-2.32h2.13v-4.73Z"/><path class="cls-4" d="M458.21,360.01c4.31,0,8.15,3.22,8.15,8.71s-3.84,8.68-8.12,8.68-8.15-3.22-8.15-8.68,3.86-8.71,8.12-8.71ZM458.21,375.1c2.41,0,5.63-1.57,5.63-6.38s-3.22-6.38-5.6-6.38-5.63,1.54-5.63,6.38,3.25,6.38,5.6,6.38Z"/><path class="cls-4" d="M301.9,411.67v-16.49h2.49v2.18c1.76-2.69,4.26-2.63,5.32-2.63v2.32c-3.58-.06-5.32,1.68-5.32,5.32v9.3h-2.49Z"/><path class="cls-4" d="M313.68,404.34c.14,3.02,1.85,5.49,5.91,5.49,2.72,0,4.23-.9,5.18-1.46v2.69c-.76.34-2.52,1.06-5.18,1.06-6.66,0-8.37-4.98-8.37-8.6,0-5.35,3.3-8.79,7.56-8.79,2.02,0,5.07.84,6.52,4.45.76,1.85.78,4.03.78,5.15h-12.4ZM323.54,402.1c-.31-4-3.05-5.04-4.87-5.04-2.72,0-4.76,2.04-4.96,5.04h9.83Z"/><path class="cls-4" d="M341.35,395.18h2.52v23.94h-2.52v-9.66c-1.37,1.76-3.16,2.66-5.38,2.66-4.23,0-7.39-3.42-7.39-8.68s3.16-8.71,7.39-8.71c2.21,0,4,.9,5.38,2.66v-2.21ZM336.34,397.06c-4.03,0-5.24,3.56-5.24,6.38s1.2,6.38,5.24,6.38c2.04,0,5.15-1.29,5.15-6.38s-3.11-6.38-5.15-6.38Z"/><path class="cls-4" d="M360.56,395.18v16.49h-2.52v-2.18c-1.74,2.6-4.65,2.63-5.18,2.63-2.58,0-4.09-1.37-4.73-2.63-.62-1.26-.7-2.41-.7-5.01v-9.3h2.49v9.3c0,2.6,0,5.35,3.56,5.35.78,0,4.56-.2,4.56-5.35v-9.3h2.52Z"/><path class="cls-4" d="M366.38,404.34c.14,3.02,1.85,5.49,5.91,5.49,2.72,0,4.23-.9,5.18-1.46v2.69c-.76.34-2.52,1.06-5.18,1.06-6.66,0-8.37-4.98-8.37-8.6,0-5.35,3.3-8.79,7.56-8.79,2.02,0,5.07.84,6.52,4.45.76,1.85.78,4.03.78,5.15h-12.4ZM376.24,402.1c-.31-4-3.05-5.04-4.87-5.04-2.72,0-4.76,2.04-4.96,5.04h9.83Z"/><path class="cls-4" d="M390.46,398.07c-.78-.45-1.85-1.01-3.67-1.01-1.57,0-3.36.56-3.36,2.35,0,1.68.92,1.99,4,2.94,1.85.59,4.7,1.48,4.7,4.79,0,3.78-3.72,4.98-6.66,4.98-.5,0-2.94,0-5.35-1.32l.84-2.16c.92.48,2.32,1.18,4.56,1.18.59,0,4.09,0,4.09-2.66,0-1.85-1.88-2.38-3.5-2.86-2.58-.73-5.18-1.57-5.18-4.82,0-3.05,2.69-4.76,5.82-4.76,2.16,0,3.7.73,4.34,1.04l-.64,2.3Z"/><path class="cls-4" d="M395.95,390.45h2.49v4.73h5.01v2.32h-5.01v9.41c0,1.54,0,2.91,2.55,2.91.36,0,1.01-.03,2.24-.2v2.3c-.59.08-1.46.2-2.6.2-4.56,0-4.68-2.74-4.68-5.21v-9.41h-2.13v-2.32h2.13v-4.73Z"/><path class="cls-4" d="M415.1,398.07c-.78-.45-1.85-1.01-3.67-1.01-1.57,0-3.36.56-3.36,2.35,0,1.68.92,1.99,4,2.94,1.85.59,4.7,1.48,4.7,4.79,0,3.78-3.72,4.98-6.66,4.98-.5,0-2.94,0-5.35-1.32l.84-2.16c.92.48,2.32,1.18,4.56,1.18.59,0,4.09,0,4.09-2.66,0-1.85-1.88-2.38-3.5-2.86-2.58-.73-5.18-1.57-5.18-4.82,0-3.05,2.69-4.76,5.82-4.76,2.16,0,3.7.73,4.34,1.04l-.64,2.3Z"/><path class="cls-4" d="M432.63,395.18v2.32h-3.05v14.17h-2.49v-14.17h-2.18v-2.32h2.18v-1.96c0-1.4,0-4.65,4.23-4.65.56,0,.98.08,1.29.14l-.2,2.24c-.22-.03-.45-.06-.81-.06-2.02,0-2.02,1.12-2.02,2.32v1.96h3.05Z"/><path class="cls-4" d="M435.18,411.67v-16.49h2.49v2.18c1.76-2.69,4.26-2.63,5.32-2.63v2.32c-3.58-.06-5.32,1.68-5.32,5.32v9.3h-2.49Z"/><path class="cls-4" d="M451.86,394.73c4.31,0,8.15,3.22,8.15,8.71s-3.84,8.68-8.12,8.68-8.15-3.22-8.15-8.68,3.86-8.71,8.12-8.71ZM451.86,409.83c2.41,0,5.63-1.57,5.63-6.38s-3.22-6.38-5.6-6.38-5.63,1.54-5.63,6.38,3.25,6.38,5.6,6.38Z"/><path class="cls-4" d="M472.44,411.67v-9.52c0-2.46-.25-5.12-3.05-5.12-1.65,0-4.26,1.06-4.26,4.98v9.66h-2.52v-16.49h2.52v2.21c.45-.67,1.79-2.66,4.73-2.66.62,0,3.39,0,4.65,3.08,1.01-1.79,2.63-3.08,5.18-3.08,1.29,0,3.95.45,4.82,3.53.28.98.34,1.9.34,3.64v9.77h-2.52v-9.49c0-2.07,0-5.12-3.14-5.12-.9,0-4.26.31-4.26,5.49v9.13h-2.49Z"/><path class="cls-4" d="M338,429.46c4.31,0,8.15,3.22,8.15,8.71s-3.84,8.68-8.12,8.68-8.15-3.22-8.15-8.68,3.86-8.71,8.12-8.71ZM338,444.55c2.41,0,5.63-1.57,5.63-6.38s-3.22-6.38-5.6-6.38-5.63,1.54-5.63,6.38,3.25,6.38,5.6,6.38Z"/><path class="cls-4" d="M358.92,429.91h2.69l-5.32,16.49h-3.33l-5.32-16.49h2.69l4.31,13.97,4.28-13.97Z"/><path class="cls-4" d="M365.61,439.06c.14,3.02,1.85,5.49,5.91,5.49,2.72,0,4.23-.9,5.18-1.46v2.69c-.76.34-2.52,1.06-5.18,1.06-6.66,0-8.37-4.98-8.37-8.6,0-5.35,3.3-8.79,7.56-8.79,2.02,0,5.07.84,6.52,4.45.76,1.85.78,4.03.78,5.15h-12.4ZM375.47,436.82c-.31-4-3.05-5.04-4.87-5.04-2.72,0-4.76,2.04-4.96,5.04h9.83Z"/><path class="cls-4" d="M381.37,446.4v-16.49h2.49v2.18c1.76-2.69,4.26-2.63,5.32-2.63v2.32c-3.58-.06-5.32,1.68-5.32,5.32v9.3h-2.49Z"/><path class="cls-4" d="M400.58,432.79c-.78-.45-1.85-1.01-3.67-1.01-1.57,0-3.36.56-3.36,2.35,0,1.68.92,1.99,4,2.94,1.85.59,4.7,1.48,4.7,4.79,0,3.78-3.72,4.98-6.66,4.98-.5,0-2.94,0-5.35-1.32l.84-2.16c.92.48,2.32,1.18,4.56,1.18.59,0,4.09,0,4.09-2.66,0-1.85-1.88-2.38-3.5-2.86-2.58-.73-5.18-1.57-5.18-4.82,0-3.05,2.69-4.76,5.82-4.76,2.16,0,3.7.73,4.34,1.04l-.64,2.3Z"/><path class="cls-4" d="M406.46,439.06c.14,3.02,1.85,5.49,5.91,5.49,2.72,0,4.23-.9,5.18-1.46v2.69c-.76.34-2.52,1.06-5.18,1.06-6.66,0-8.37-4.98-8.37-8.6,0-5.35,3.3-8.79,7.56-8.79,2.02,0,5.07.84,6.52,4.45.76,1.85.78,4.03.78,5.15h-12.4ZM416.32,436.82c-.31-4-3.05-5.04-4.87-5.04-2.72,0-4.76,2.04-4.96,5.04h9.83Z"/><path class="cls-4" d="M422.28,430.83c.64-.36,2.49-1.37,5.35-1.37.73,0,3.75,0,5.54,2.07,1.04,1.2,1.12,2.52,1.12,4.2v7.56c0,1.76.34,2.49.62,3.11h-2.63c-.2-.39-.42-.84-.45-2.04-1.57,1.68-3.61,2.49-5.91,2.49-3.58,0-5.21-2.27-5.21-4.82,0-4.93,5.01-5.52,7.87-5.85,2.35-.28,3.16-.36,3.16-1.71,0-1.9-2.04-2.69-4.14-2.69-2.55,0-4.31,1.06-5.1,1.54l-.22-2.49ZM431.8,437.75c-.84.34-1.09.39-3.5.67-2.44.31-5.12.78-5.12,3.53,0,1.6,1.06,2.66,2.91,2.66s4.51-1.12,5.71-3.42v-3.44Z"/><path class="cls-4" d="M447.65,432.79c-.78-.45-1.85-1.01-3.67-1.01-1.57,0-3.36.56-3.36,2.35,0,1.68.92,1.99,4,2.94,1.85.59,4.7,1.48,4.7,4.79,0,3.78-3.72,4.98-6.66,4.98-.5,0-2.94,0-5.35-1.32l.84-2.16c.92.48,2.32,1.18,4.56,1.18.59,0,4.09,0,4.09-2.66,0-1.85-1.88-2.38-3.5-2.86-2.58-.73-5.18-1.57-5.18-4.82,0-3.05,2.69-4.76,5.82-4.76,2.16,0,3.7.73,4.34,1.04l-.64,2.3Z"/><path class="cls-4" d="M456.05,442.76v3.64h-3.56v-3.64h3.56Z"/><path class="cls-1" d="M251.09,65.55c-1.16-1.27-2.05-2.85-2.6-4.51-.92-2.7-1.37-5.67-1.37-8.76,0-4.09.85-8.22,2.19-10.72,2.22-4.2,6.09-6.52,10.74-6.52,3.59,0,6.7,1.35,8.96,3.86,1.2,1.35,2.09,2.89,2.63,4.55.89,2.66,1.37,5.71,1.37,8.79,0,4.75-.99,8.95-2.74,11.65-2.33,3.62-5.92,5.55-10.26,5.55-3.59,0-6.63-1.31-8.93-3.9ZM264.53,52.24c0-6.36-1.44-9.41-4.48-9.41s-4.48,3.09-4.48,9.45,1.47,9.33,4.48,9.33,4.48-2.97,4.48-9.37Z"/><path class="cls-1" d="M288.18,35.77c2.8,0,3.38-.04,4.72-.15-.17,2.04-.24,3.43-.24,6.13v20.64c0,2.47.07,4.32.27,6.33h-8.86c.21-2.01.27-3.9.27-6.33v-18.71c-2.91,0-3.97.08-5.78.27v-8.45c1.44.23,2.36.27,4.55.27h5.06Z"/><path class="cls-10" d="M364.22,305.13c-1.16-1.12-2.04-2.52-2.58-3.98-.92-2.38-1.36-5-1.36-7.72,0-3.6.85-7.24,2.18-9.45,2.21-3.71,6.05-5.75,10.67-5.75,3.57,0,6.66,1.19,8.91,3.4,1.19,1.19,2.07,2.55,2.62,4.01.88,2.35,1.36,5.03,1.36,7.75,0,4.18-.99,7.89-2.72,10.27-2.31,3.2-5.88,4.9-10.2,4.9-3.57,0-6.6-1.16-8.87-3.43ZM377.58,293.4c0-5.61-1.43-8.29-4.45-8.29s-4.45,2.72-4.45,8.33,1.46,8.23,4.45,8.23,4.45-2.62,4.45-8.26Z"/><path class="cls-10" d="M396.69,298.5c.07.88.2,1.33.61,1.9.75.99,2.07,1.56,3.6,1.56,2.14,0,3.5-1.12,3.5-2.89,0-1.94-1.02-2.72-3.57-2.72-2.18,0-3.6.07-5.24.2v-6.83c1.22.14,2.62.2,3.94.2,2.89,0,4.08-.78,4.08-2.62,0-1.53-.99-2.38-2.82-2.38-2.01,0-3.06.82-3.4,2.69l-8.91-1.19c.65-2.11,1.16-3.13,2.18-4.35.99-1.16,2.18-2.07,3.43-2.62,2.07-.88,4.45-1.33,7.07-1.33,4.83,0,8.74,1.63,10.44,4.35.65.99.95,2.21.95,3.6,0,2.38-.82,4.25-2.41,5.41-1.09.85-2.14,1.22-4.42,1.67,2.72.41,4.01.85,5.3,1.9,1.5,1.19,2.28,2.99,2.28,5.17s-.71,3.91-2.11,5.27c-2.11,2.07-5.64,3.2-10,3.2-1.53,0-3.37-.2-4.79-.51-3.37-.71-5.47-2.11-6.97-4.62-.58-.95-.92-1.8-1.43-3.6l8.67-1.46Z"/><path class="cls-6" d="M121.37,305.13c-1.16-1.12-2.04-2.52-2.58-3.98-.92-2.38-1.36-5-1.36-7.72,0-3.6.85-7.24,2.18-9.45,2.21-3.71,6.05-5.75,10.67-5.75,3.57,0,6.66,1.19,8.91,3.4,1.19,1.19,2.07,2.55,2.62,4.01.88,2.35,1.36,5.03,1.36,7.75,0,4.18-.99,7.89-2.72,10.27-2.31,3.2-5.88,4.9-10.2,4.9-3.57,0-6.6-1.16-8.87-3.43ZM134.73,293.4c0-5.61-1.43-8.29-4.45-8.29s-4.45,2.72-4.45,8.33,1.46,8.23,4.45,8.23,4.45-2.62,4.45-8.26Z"/><path class="cls-6" d="M151.08,307.92c-3.26,0-4.11,0-5.54.1.03-.92.07-1.26.17-1.84.58-3.6,2.01-6.53,4.52-9.21,1.5-1.63,3.64-3.3,7.21-5.68,2.55-1.7,3.33-2.58,3.33-3.77,0-1.46-1.12-2.41-2.82-2.41-1.33,0-2.38.54-3.03,1.6-.41.68-.58,1.29-.68,2.58l-8.7-.82c.54-3.2,1.19-4.76,2.62-6.46,2.04-2.45,5.44-3.77,9.69-3.77s7.34,1.09,9.45,3.16c1.5,1.5,2.24,3.4,2.24,5.78,0,1.67-.44,3.26-1.19,4.35-.82,1.22-2.24,2.45-5.34,4.59-3.26,2.28-4.52,3.37-5.34,4.66h6.46c2.89,0,4.35-.07,5.75-.24v7.62c-2.11-.17-3.71-.24-6.22-.24h-12.58Z"/></g></svg>